<?xml version="1.0" encoding="utf-8"?>
<!-- Generator: Adobe Illustrator 25.0.1, SVG Export Plug-In . SVG Version: 6.00 Build 0)  -->
<svg version="1.1" id="Calque_5_-_copie" xmlns="http://www.w3.org/2000/svg" xmlns:xlink="http://www.w3.org/1999/xlink" x="0px"
	 y="0px" viewBox="0 0 111.63 27.26" style="enable-background:new 0 0 111.63 27.26;" xml:space="preserve">
<style type="text/css">
	.st0{fill:#3C3C3B;}
</style>
<g>
	<g>
		<g>
			<path class="st0" d="M111.63,1.88c0,1.05-0.83,1.89-1.88,1.89c-1.05,0-1.89-0.84-1.89-1.89c0-1.05,0.84-1.88,1.9-1.88
				C110.8,0,111.63,0.82,111.63,1.88z M108.33,1.88c0,0.84,0.62,1.5,1.43,1.5c0.79,0.01,1.4-0.67,1.4-1.49
				c0-0.84-0.6-1.51-1.42-1.51C108.94,0.38,108.33,1.05,108.33,1.88z M109.46,2.85h-0.43V0.97c0.17-0.02,0.4-0.06,0.7-0.06
				c0.35,0,0.5,0.06,0.63,0.15c0.11,0.08,0.19,0.22,0.19,0.4c0,0.23-0.17,0.38-0.38,0.45v0.02c0.18,0.06,0.27,0.21,0.32,0.46
				c0.06,0.29,0.1,0.39,0.14,0.46h-0.45c-0.06-0.07-0.09-0.23-0.15-0.46c-0.03-0.19-0.15-0.29-0.38-0.29h-0.2V2.85z M109.47,1.8h0.2
				c0.24,0,0.43-0.08,0.43-0.27c0-0.17-0.12-0.29-0.39-0.29c-0.11,0-0.19,0.01-0.24,0.02V1.8z"/>
		</g>
		<g>
			<g>
				<g>
					<path class="st0" d="M14.2,12.06V0h-1.59v7.63h-0.05c-1.34-1.53-3.2-2.71-5.45-2.71C3.15,4.92,0,8.04,0,12.06
						c0,4.32,3.11,7.25,7.1,7.25C11.1,19.31,14.2,16.39,14.2,12.06C14.2,12.06,14.2,12.06,14.2,12.06z M1.59,12.06
						c0-2.74,2.19-5.55,5.44-5.55c2.99,0,5.55,2.06,5.58,5.58c-0.01,3.19-2.21,5.64-5.51,5.64C3.79,17.73,1.59,15.27,1.59,12.06z"/>
					<path class="st0" d="M18.58,14.53c0.55,1.26,2.33,3.2,4.87,3.2c2,0,3.72-1.04,5.2-2.27v1.92c-1.2,1.2-3.39,1.94-5.09,1.94
						c-4.24,0-7.11-3.2-7.11-7.36c0-4.16,3.06-7.03,7.17-7.03c2.52,0,4.6,1.61,5.42,3.2L18.58,14.53z M26.54,7.71
						c-0.63-0.68-1.67-1.2-2.93-1.2c-3.23,0-5.58,2.38-5.58,5.47c0,0.36,0.03,0.77,0.11,1.12L26.54,7.71z M21.51,3.5l2.78-3.46h2.11
						L22.93,3.5H21.51z"/>
					<path class="st0" d="M42.41,17.56c-1.07,1.04-3.12,1.75-4.92,1.75c-3.97,0-7.09-3.01-7.09-7.33c0-4.21,3.53-7.06,7.39-7.06
						c1.67,0,3.34,0.68,4.71,1.61l-0.98,1.29c-0.82-0.71-2.08-1.31-3.8-1.31c-3.28,0-5.72,2.38-5.72,5.66c0,2.96,2.3,5.56,5.36,5.56
						c1.5,0.03,2.9-0.49,4.08-1.4L42.41,17.56z"/>
					<path class="st0" d="M57.82,12.12c0,3.69-2.98,7.2-7.03,7.2c-4.05,0-7.03-3.5-7.03-7.2c0-3.69,2.98-7.2,7.03-7.2
						C54.84,4.92,57.82,8.42,57.82,12.12z M45.34,12.12c0,2.93,2.35,5.61,5.45,5.61c3.09,0,5.45-2.68,5.45-5.61
						c0-2.93-2.35-5.61-5.45-5.61C47.69,6.51,45.34,9.19,45.34,12.12z"/>
					<path class="st0" d="M66.44,12.86h-6.55v-1.48h6.55V12.86z"/>
					<g>
						<path class="st0" d="M69.31,19.08V0h1.7v9.43L78.78,0h1.81L73,9.24l8.68,9.84h-2.36l-8.31-9.63v9.63H69.31z"/>
					</g>
					<path class="st0" d="M88.59,12.86h-6.55v-1.48h6.55V12.86z"/>
					<path class="st0" d="M91.46,19.08V5.09h1.59v13.99H91.46z M91.46,2.38V0h1.59v2.38H91.46z"/>
				</g>
			</g>
			<g>
				<path class="st0" d="M107.86,19.08h-1.59v-7.66l0-0.04c-0.01-1.64-0.49-3-1.35-3.83c-1.15-1.13-2.64-1.22-3.07-1.22
					c-0.43,0-1.92,0.09-3.07,1.22c-0.86,0.83-1.34,2.19-1.35,3.83l0,0.04v7.66h-1.59v-7.66c0-2.08,0.59-3.74,1.69-4.83
					c1.15-1.15,2.47-1.66,4.28-1.67l0.05,0c1.83,0.01,3.15,0.52,4.3,1.67c1.11,1.08,1.7,2.75,1.7,4.83v7.54V19.08z"/>
			</g>
		</g>
	</g>
	<g>
		<path class="st0" d="M16.35,23.16h1.12c0.86,0,1.37,0.66,1.37,1.33c0,0.68-0.51,1.33-1.37,1.33h-0.61v1.38h-0.51V23.16z
			 M17.36,25.38c0.61,0,0.96-0.3,0.96-0.88s-0.35-0.89-0.96-0.89h-0.5v1.77H17.36z"/>
		<path class="st0" d="M21.62,26.26h-1.88l-0.37,0.94h-0.56l1.64-4.04h0.45l1.64,4.04h-0.56L21.62,26.26z M20.68,23.83l-0.77,1.98
			h1.53L20.68,23.83z"/>
		<path class="st0" d="M25.74,23.16h0.51v4.04h-0.48l-2.17-3.12h-0.01v3.12h-0.51v-4.04h0.48l2.17,3.12h0.01V23.16z"/>
		<path class="st0" d="M29.81,23.16h0.51v4.04h-0.48l-2.17-3.12h-0.01v3.12h-0.51v-4.04h0.48l2.17,3.12h0.01V23.16z"/>
		<path class="st0" d="M31.23,23.16h2.09v0.48h-1.58v1.28h1.58v0.48h-1.58v1.32h1.58v0.48h-2.09V23.16z"/>
		<path class="st0" d="M36.6,26.26h-1.88l-0.37,0.94h-0.56l1.64-4.04h0.45l1.64,4.04h-0.56L36.6,26.26z M35.66,23.83l-0.77,1.98
			h1.53L35.66,23.83z"/>
		<path class="st0" d="M37.88,23.16h0.51v2.42c0,0.66,0.37,1.2,1.07,1.2s1.07-0.54,1.07-1.2v-2.42h0.51v2.57
			c0,0.87-0.66,1.53-1.59,1.53c-0.91,0-1.57-0.66-1.57-1.53V23.16z"/>
		<path class="st0" d="M47.08,23.16h0.51v4.04h-0.51v-2.99h-0.01l-1.63,3.03l-1.63-3.03h-0.01v2.99h-0.51v-4.04h0.51l1.64,3.05
			L47.08,23.16z"/>
		<path class="st0" d="M48.49,23.16H49v2.42c0,0.66,0.37,1.2,1.07,1.2s1.07-0.54,1.07-1.2v-2.42h0.51v2.57
			c0,0.87-0.66,1.53-1.59,1.53c-0.91,0-1.57-0.66-1.57-1.53V23.16z"/>
		<path class="st0" d="M53.07,25.48v1.72h-0.51v-4.04h1.16c0.78,0,1.36,0.45,1.36,1.22c0,0.72-0.57,1.17-1.23,1.21l1.57,1.61h-0.72
			L53.07,25.48z M53.07,25.16c0.07,0.01,0.14,0.01,0.45,0.01c0.78,0,1.05-0.34,1.05-0.78c0-0.47-0.32-0.78-0.86-0.78h-0.64V25.16z"
			/>
		<path class="st0" d="M58.62,26.26h-1.88l-0.37,0.94h-0.56l1.64-4.04h0.45l1.64,4.04h-0.56L58.62,26.26z M57.67,23.83l-0.77,1.98
			h1.53L57.67,23.83z"/>
		<path class="st0" d="M60.09,23.16h0.51v3.56h1.42v0.48h-1.93V23.16z"/>
		<path class="st0" d="M64,23.16h1.33c0.99,0,1.94,0.85,1.94,2c0,1.15-0.92,2.04-2.07,2.04H64V23.16z M65.19,26.72
			c0.9,0,1.53-0.69,1.53-1.58c0-0.86-0.69-1.5-1.57-1.5h-0.64v3.08H65.19z"/>
		<path class="st0" d="M68.01,23.16h2.09v0.48h-1.58v1.28h1.58v0.48h-1.58v1.32h1.58v0.48h-2.09V23.16z M69.21,22.26h0.64v0.04
			l-0.7,0.66h-0.38L69.21,22.26z"/>
		<path class="st0" d="M73.84,23.99c-0.29-0.26-0.65-0.41-1.04-0.41c-0.84,0-1.6,0.68-1.6,1.6c0,0.94,0.78,1.6,1.6,1.6
			c0.45,0,0.8-0.16,1.08-0.43l0.32,0.37c-0.36,0.33-0.89,0.54-1.4,0.54c-1.37,0-2.14-1.08-2.14-2.08c0-1,0.77-2.08,2.14-2.08
			c0.54,0,1.06,0.22,1.39,0.52L73.84,23.99z"/>
		<path class="st0" d="M76.57,23.1c1.37,0,2.14,1.08,2.14,2.08c0,1-0.77,2.08-2.14,2.08c-1.37,0-2.14-1.08-2.14-2.08
			C74.43,24.18,75.2,23.1,76.57,23.1z M76.57,26.79c0.82,0,1.6-0.65,1.6-1.6c0-0.96-0.78-1.6-1.6-1.6c-0.82,0-1.6,0.65-1.6,1.6
			C74.97,26.14,75.75,26.79,76.57,26.79z"/>
		<path class="st0" d="M79.97,25.48v1.72h-0.51v-4.04h1.16c0.78,0,1.36,0.45,1.36,1.22c0,0.72-0.57,1.17-1.23,1.21l1.57,1.61H81.6
			L79.97,25.48z M79.97,25.16c0.07,0.01,0.14,0.01,0.45,0.01c0.78,0,1.05-0.34,1.05-0.78c0-0.47-0.32-0.78-0.86-0.78h-0.64V25.16z"
			/>
		<path class="st0" d="M85.51,26.26h-1.88l-0.37,0.94H82.7l1.64-4.04h0.45l1.64,4.04h-0.56L85.51,26.26z M84.57,23.83l-0.77,1.98
			h1.53L84.57,23.83z"/>
		<path class="st0" d="M87.34,23.64h-1.01v-0.48h2.53v0.48h-1.01v3.56h-0.51V23.64z"/>
		<path class="st0" d="M89.4,23.16h0.51v4.04H89.4V23.16z"/>
		<path class="st0" d="M90.81,23.16h2.09v0.48h-1.58v1.28h1.58v0.48h-1.58v1.8h-0.51V23.16z"/>
	</g>
</g>
</svg>
