<?xml version="1.0" encoding="utf-8"?>
<!-- Generator: Adobe Illustrator 25.0.1, SVG Export Plug-In . SVG Version: 6.00 Build 0)  -->
<svg version="1.1" id="Calque_5_-_copie" xmlns="http://www.w3.org/2000/svg" xmlns:xlink="http://www.w3.org/1999/xlink" x="0px"
	 y="0px" viewBox="0 0 127.56 56.69" style="enable-background:new 0 0 127.56 56.69;" xml:space="preserve">
<style type="text/css">
	.st0{fill:#383838;}
</style>
<g>
	<g>
		<g>
			<path class="st0" d="M119.59,14.63c0,1.05-0.83,1.89-1.88,1.89c-1.05,0-1.89-0.84-1.89-1.89c0-1.05,0.84-1.88,1.9-1.88
				C118.76,12.75,119.59,13.58,119.59,14.63z M116.29,14.63c0,0.84,0.62,1.5,1.43,1.5c0.79,0.01,1.4-0.67,1.4-1.49
				c0-0.84-0.6-1.51-1.42-1.51C116.91,13.13,116.29,13.81,116.29,14.63z M117.42,15.61H117v-1.88c0.17-0.02,0.4-0.06,0.7-0.06
				c0.35,0,0.5,0.06,0.63,0.15c0.11,0.08,0.19,0.22,0.19,0.4c0,0.23-0.17,0.38-0.38,0.45v0.02c0.18,0.06,0.27,0.21,0.32,0.46
				c0.06,0.29,0.1,0.39,0.14,0.46h-0.45c-0.06-0.07-0.09-0.23-0.15-0.46c-0.03-0.19-0.15-0.29-0.38-0.29h-0.2V15.61z M117.43,14.55
				h0.2c0.24,0,0.43-0.08,0.43-0.27c0-0.17-0.12-0.29-0.39-0.29c-0.11,0-0.19,0.01-0.24,0.02V14.55z"/>
		</g>
		<g>
			<g>
				<g>
					<path class="st0" d="M22.17,24.81V12.75h-1.59v7.63h-0.05c-1.34-1.53-3.2-2.71-5.45-2.71c-3.97,0-7.11,3.12-7.11,7.14
						c0,4.32,3.11,7.25,7.1,7.25C19.06,32.07,22.17,29.14,22.17,24.81C22.17,24.82,22.17,24.81,22.17,24.81z M9.55,24.82
						c0-2.74,2.19-5.55,5.44-5.55c2.99,0,5.55,2.06,5.58,5.58c-0.01,3.19-2.21,5.64-5.51,5.64C11.76,30.48,9.55,28.02,9.55,24.82z"
						/>
					<path class="st0" d="M26.55,27.28c0.55,1.26,2.33,3.2,4.87,3.2c2,0,3.72-1.04,5.2-2.27v1.92c-1.2,1.2-3.39,1.94-5.09,1.94
						c-4.24,0-7.11-3.2-7.11-7.36c0-4.16,3.06-7.03,7.17-7.03c2.52,0,4.6,1.61,5.42,3.2L26.55,27.28z M34.51,20.47
						c-0.63-0.68-1.67-1.2-2.93-1.2c-3.23,0-5.58,2.38-5.58,5.47c0,0.36,0.03,0.77,0.11,1.12L34.51,20.47z M29.47,16.25l2.78-3.46
						h2.11l-3.47,3.46H29.47z"/>
					<path class="st0" d="M50.37,30.32c-1.07,1.04-3.12,1.75-4.92,1.75c-3.97,0-7.09-3.01-7.09-7.33c0-4.21,3.53-7.06,7.39-7.06
						c1.67,0,3.34,0.68,4.71,1.61l-0.98,1.29c-0.82-0.71-2.08-1.31-3.8-1.31c-3.28,0-5.72,2.38-5.72,5.66c0,2.96,2.3,5.56,5.36,5.56
						c1.5,0.03,2.9-0.49,4.08-1.4L50.37,30.32z"/>
					<path class="st0" d="M65.79,24.87c0,3.69-2.98,7.2-7.03,7.2c-4.05,0-7.03-3.5-7.03-7.2c0-3.69,2.98-7.2,7.03-7.2
						C62.8,17.68,65.79,21.18,65.79,24.87z M53.31,24.87c0,2.93,2.35,5.61,5.45,5.61c3.09,0,5.45-2.68,5.45-5.61
						c0-2.93-2.35-5.61-5.45-5.61C55.66,19.26,53.31,21.95,53.31,24.87z"/>
					<path class="st0" d="M74.41,25.61h-6.55v-1.48h6.55V25.61z"/>
					<g>
						<path class="st0" d="M77.28,31.83V12.75h1.7v9.43l7.77-9.43h1.81L80.97,22l8.68,9.84h-2.36l-8.31-9.63v9.63H77.28z"/>
					</g>
					<path class="st0" d="M96.55,25.61h-6.55v-1.48h6.55V25.61z"/>
					<path class="st0" d="M99.43,31.83V17.84h1.59v13.99H99.43z M99.43,15.13v-2.38h1.59v2.38H99.43z"/>
				</g>
			</g>
			<g>
				<path class="st0" d="M115.82,31.83h-1.59v-7.66l0-0.04c-0.01-1.64-0.49-3-1.35-3.83c-1.15-1.13-2.64-1.22-3.07-1.22
					c-0.43,0-1.92,0.09-3.07,1.22c-0.86,0.83-1.34,2.19-1.35,3.83l0,0.04v7.66h-1.59v-7.66c0-2.08,0.59-3.74,1.69-4.83
					c1.15-1.15,2.47-1.66,4.28-1.67l0.05,0c1.83,0.01,3.15,0.52,4.3,1.67c1.11,1.08,1.7,2.75,1.7,4.83v7.54V31.83z"/>
			</g>
		</g>
	</g>
	<g>
		<path class="st0" d="M24.31,35.92h1.12c0.86,0,1.37,0.66,1.37,1.33s-0.51,1.33-1.37,1.33h-0.61v1.38h-0.51V35.92z M25.32,38.13
			c0.61,0,0.96-0.3,0.96-0.88s-0.35-0.89-0.96-0.89h-0.5v1.77H25.32z"/>
		<path class="st0" d="M29.58,39.01H27.7l-0.37,0.94h-0.56l1.64-4.04h0.45l1.64,4.04h-0.56L29.58,39.01z M28.64,36.58l-0.77,1.98
			h1.53L28.64,36.58z"/>
		<path class="st0" d="M33.71,35.92h0.51v4.04h-0.48l-2.17-3.12h-0.01v3.12h-0.51v-4.04h0.48l2.17,3.12h0.01V35.92z"/>
		<path class="st0" d="M37.77,35.92h0.51v4.04h-0.48l-2.17-3.12h-0.01v3.12h-0.51v-4.04h0.48l2.17,3.12h0.01V35.92z"/>
		<path class="st0" d="M39.2,35.92h2.09v0.48h-1.58v1.28h1.58v0.48h-1.58v1.32h1.58v0.48H39.2V35.92z"/>
		<path class="st0" d="M44.57,39.01h-1.88l-0.37,0.94h-0.56l1.64-4.04h0.45l1.64,4.04h-0.56L44.57,39.01z M43.63,36.58l-0.77,1.98
			h1.53L43.63,36.58z"/>
		<path class="st0" d="M45.85,35.92h0.51v2.42c0,0.66,0.37,1.2,1.07,1.2s1.07-0.54,1.07-1.2v-2.42h0.51v2.57
			c0,0.87-0.66,1.53-1.59,1.53c-0.91,0-1.57-0.66-1.57-1.53V35.92z"/>
		<path class="st0" d="M55.05,35.92h0.51v4.04h-0.51v-2.99h-0.01L53.4,40l-1.63-3.03h-0.01v2.99h-0.51v-4.04h0.51l1.64,3.05
			L55.05,35.92z"/>
		<path class="st0" d="M56.46,35.92h0.51v2.42c0,0.66,0.37,1.2,1.07,1.2s1.07-0.54,1.07-1.2v-2.42h0.51v2.57
			c0,0.87-0.66,1.53-1.59,1.53c-0.91,0-1.57-0.66-1.57-1.53V35.92z"/>
		<path class="st0" d="M61.04,38.23v1.72h-0.51v-4.04h1.16c0.78,0,1.36,0.45,1.36,1.22c0,0.72-0.57,1.17-1.23,1.21l1.57,1.61h-0.72
			L61.04,38.23z M61.04,37.92c0.07,0.01,0.14,0.01,0.45,0.01c0.78,0,1.05-0.34,1.05-0.78c0-0.47-0.32-0.78-0.86-0.78h-0.64V37.92z"
			/>
		<path class="st0" d="M66.58,39.01H64.7l-0.37,0.94h-0.56l1.64-4.04h0.45l1.64,4.04h-0.56L66.58,39.01z M65.64,36.58l-0.77,1.98
			h1.53L65.64,36.58z"/>
		<path class="st0" d="M68.06,35.92h0.51v3.56h1.42v0.48h-1.93V35.92z"/>
		<path class="st0" d="M71.96,35.92h1.33c0.99,0,1.94,0.85,1.94,2c0,1.15-0.92,2.04-2.07,2.04h-1.2V35.92z M73.16,39.48
			c0.9,0,1.53-0.69,1.53-1.58c0-0.86-0.69-1.5-1.57-1.5h-0.64v3.08H73.16z"/>
		<path class="st0" d="M75.98,35.92h2.09v0.48h-1.58v1.28h1.58v0.48h-1.58v1.32h1.58v0.48h-2.09V35.92z M77.18,35.02h0.64v0.04
			l-0.7,0.66h-0.38L77.18,35.02z"/>
		<path class="st0" d="M81.81,36.74c-0.29-0.26-0.65-0.41-1.04-0.41c-0.84,0-1.6,0.68-1.6,1.6c0,0.94,0.78,1.6,1.6,1.6
			c0.45,0,0.8-0.16,1.08-0.43l0.32,0.37c-0.36,0.33-0.89,0.54-1.4,0.54c-1.37,0-2.14-1.08-2.14-2.08c0-1,0.77-2.08,2.14-2.08
			c0.54,0,1.06,0.22,1.39,0.52L81.81,36.74z"/>
		<path class="st0" d="M84.54,35.85c1.37,0,2.14,1.08,2.14,2.08c0,1-0.77,2.08-2.14,2.08c-1.37,0-2.14-1.08-2.14-2.08
			C82.4,36.94,83.17,35.85,84.54,35.85z M84.54,39.54c0.82,0,1.6-0.65,1.6-1.6c0-0.96-0.78-1.6-1.6-1.6c-0.82,0-1.6,0.65-1.6,1.6
			C82.94,38.89,83.71,39.54,84.54,39.54z"/>
		<path class="st0" d="M87.93,38.23v1.72h-0.51v-4.04h1.16c0.78,0,1.36,0.45,1.36,1.22c0,0.72-0.57,1.17-1.23,1.21l1.57,1.61h-0.72
			L87.93,38.23z M87.93,37.92c0.07,0.01,0.14,0.01,0.45,0.01c0.78,0,1.05-0.34,1.05-0.78c0-0.47-0.32-0.78-0.86-0.78h-0.64V37.92z"
			/>
		<path class="st0" d="M93.48,39.01H91.6l-0.37,0.94h-0.56l1.64-4.04h0.45l1.64,4.04h-0.56L93.48,39.01z M92.54,36.58l-0.77,1.98
			h1.53L92.54,36.58z"/>
		<path class="st0" d="M95.31,36.39H94.3v-0.48h2.53v0.48h-1.01v3.56h-0.51V36.39z"/>
		<path class="st0" d="M97.37,35.92h0.51v4.04h-0.51V35.92z"/>
		<path class="st0" d="M98.78,35.92h2.09v0.48h-1.58v1.28h1.58v0.48h-1.58v1.8h-0.51V35.92z"/>
	</g>
</g>
</svg>
